<svg id="Capa_1" enable-background="new 0 0 512 512" height="512" viewBox="0 0 512 512" width="512" xmlns="http://www.w3.org/2000/svg"><g><g><g><path d="m128.898 164.671v137.427c0 46.652 37.819 84.471 84.471 84.471h85.26c46.652 0 84.471-37.819 84.471-84.471v-137.427z" fill="#c86d36"/><path d="m383.102 164.667v137.426c0 46.652-37.823 84.474-84.474 84.474h-20.484c46.651 0 84.464-37.823 84.464-84.474v-137.426z" fill="#ac5e2e"/></g><path d="m145.338 241.182h-20.201c-17.077 0-30.92-13.843-30.92-30.92 0-17.077 13.843-30.92 30.92-30.92h20.201z" fill="#ffcebf"/><path d="m366.66 241.185h20.201c17.077 0 30.92-13.843 30.92-30.92 0-17.077-13.843-30.92-30.92-30.92h-20.201z" fill="#ffcebf"/><path d="m417.783 210.267c0 17.072-13.844 30.916-30.926 30.916h-20.197v-.01c17.884-.298 32.293-14.903 32.293-32.859 0-9.075-3.68-17.287-9.63-23.238-2.271-2.271-4.861-4.204-7.708-5.735h5.242c8.541 0 16.27 3.464 21.871 9.055 5.591 5.601 9.055 13.33 9.055 21.871z" fill="#ffb09e"/><path d="m373.397 511.999h-234.799v-31.736c0-64.838 52.562-117.399 117.399-117.399 64.838 0 117.399 52.562 117.399 117.399v31.736z" fill="#8ac9fe"/><path d="m373.392 480.262v31.738h-20.556v-31.738c0-32.417-13.145-61.77-34.38-83.005-18.983-18.983-44.421-31.492-72.737-33.938 3.381-.298 6.814-.452 10.278-.452 32.417 0 61.76 13.135 83.015 34.39 21.235 21.234 34.38 50.588 34.38 83.005z" fill="#60b7ff"/><path d="m255.999 401.182c-12.807 0-23.189-10.382-23.189-23.189v-53.449h46.377v53.449c.001 12.808-10.381 23.189-23.188 23.189z" fill="#ffcebf"/><path d="m279.185 324.541v53.456c0 12.806-10.381 23.187-23.187 23.187-3.69 0-7.184-.863-10.278-2.395 7.647-3.793 12.909-11.676 12.909-20.792v-53.456z" fill="#ffb09e"/><g><path d="m256 345.349c-70.2 0-127.108-56.908-127.108-127.107v-96.937l88.721-75.545 165.494 75.545v96.937c.001 70.199-56.907 127.107-127.107 127.107z" fill="#ffcebf"/><path d="m383.103 121.307v96.931c0 70.203-56.899 127.113-127.102 127.113-3.706 0-7.379-.164-11.008-.481 65.043-5.564 116.104-60.135 116.104-126.632v-106.977z" fill="#ffb09e"/></g><g><path d="m128.902 180.697s65.751-33.016 81.913-86.624c.954-3.165 5.312-3.432 6.632-.401 9.539 21.893 63.221 70.909 165.651 87.025v-53.598c0-70.195-56.904-127.099-127.098-127.099-70.194 0-127.098 56.904-127.098 127.098z" fill="#c86d36"/><path d="m383.095 127.102v53.599c-7.123-1.12-13.999-2.395-20.648-3.823v-49.776c0-66.714-51.41-121.423-116.768-126.686 3.402-.267 6.845-.411 10.319-.411 70.199 0 127.097 56.898 127.097 127.097z" fill="#ac5e2e"/></g></g><g><g><g><g><g><path d="m180.913 269.124c-.851 0-1.716-.146-2.563-.454-3.893-1.416-5.901-5.719-4.485-9.611l3.183-8.754c1.416-3.893 5.718-5.901 9.611-4.485s5.901 5.719 4.485 9.611l-3.183 8.754c-1.107 3.046-3.984 4.939-7.048 4.939z" fill="#c86d36"/></g></g><g><g><path d="m205.055 269.124c-.851 0-1.716-.146-2.563-.454-3.893-1.416-5.901-5.719-4.485-9.611l3.183-8.754c1.416-3.893 5.72-5.901 9.611-4.485 3.893 1.416 5.901 5.719 4.485 9.611l-3.183 8.754c-1.107 3.046-3.983 4.939-7.048 4.939z" fill="#c86d36"/></g></g></g><g><g><g><path d="m303.756 269.124c-.851 0-1.716-.146-2.563-.454-3.893-1.416-5.901-5.719-4.485-9.611l3.183-8.754c1.416-3.893 5.718-5.901 9.611-4.485s5.901 5.719 4.485 9.611l-3.183 8.754c-1.107 3.046-3.983 4.939-7.048 4.939z" fill="#c86d36"/></g></g><g><g><path d="m327.899 269.124c-.851 0-1.716-.146-2.563-.454-3.893-1.416-5.901-5.719-4.485-9.611l3.183-8.754c1.416-3.893 5.719-5.901 9.611-4.485 3.893 1.416 5.901 5.719 4.485 9.611l-3.183 8.754c-1.107 3.046-3.983 4.939-7.048 4.939z" fill="#c86d36"/></g></g></g></g><g><path d="m254.346 293.783c-9.221 0-17.895-4.507-23.204-12.057-2.383-3.389-1.568-8.067 1.82-10.449 3.389-2.384 8.066-1.567 10.449 1.82 2.503 3.56 6.591 5.686 10.935 5.686s8.432-2.126 10.936-5.688c2.383-3.389 7.061-4.204 10.449-1.822 3.389 2.382 4.204 7.06 1.822 10.449-5.309 7.552-13.985 12.061-23.207 12.061z" fill="#c86d36"/></g></g><g><g><path d="m232.063 235.421c-4.142 0-7.5-3.358-7.5-7.5v-7.488c0-5.877-4.781-10.658-10.658-10.658s-10.658 4.781-10.658 10.658v7.317c0 4.142-3.358 7.5-7.5 7.5s-7.5-3.358-7.5-7.5v-7.317c0-14.148 11.51-25.658 25.658-25.658s25.658 11.51 25.658 25.658v7.488c0 4.142-3.357 7.5-7.5 7.5z" fill="#c86d36"/></g><g><path d="m316.253 235.421c-4.142 0-7.5-3.358-7.5-7.5v-7.488c0-5.877-4.781-10.658-10.658-10.658s-10.658 4.781-10.658 10.658v7.317c0 4.142-3.358 7.5-7.5 7.5s-7.5-3.358-7.5-7.5v-7.317c0-14.148 11.51-25.658 25.658-25.658s25.658 11.51 25.658 25.658v7.488c0 4.142-3.358 7.5-7.5 7.5z" fill="#c86d36"/></g></g></g></svg>